
<svg width="357" height="174" viewBox="0 0 357 174" fill="none" xmlns="http://www.w3.org/2000/svg">
<path d="M32.4455 20.4674L13.3016 89.5384C11.2781 96.8275 16.1872 104.214 23.0583 104.214H163.796C168.872 104.214 173.35 100.54 174.846 95.1567L193.99 26.0857C196.013 18.7965 191.104 11.4097 184.233 11.4097H43.4955C38.4192 11.4097 33.9411 15.0835 32.4455 20.4674Z" fill="#175FFF"/>
<path d="M36.6064 57.8118C36.6064 39.7648 49.1784 26.0659 65.6654 26.0659C79.5131 26.0659 90.5631 35.7587 93.2904 49.3599H83.1994C80.7184 41.5334 73.9089 36.2863 65.6654 36.2863C54.7738 36.2863 46.4511 45.5297 46.4511 57.802C46.4511 70.0744 54.7738 79.3177 65.6654 79.3177C73.9089 79.3177 80.7184 74.0707 83.1994 66.2442H93.2904C90.5719 79.8454 79.5219 89.5382 65.6654 89.5382C49.1696 89.5382 36.6064 75.849 36.6064 57.7923V57.8118Z" fill="white"/>
<path d="M97.4619 65.8143C97.4619 52.301 106.031 42.0708 117.556 42.0708C123.565 42.0708 128.527 44.9141 131.888 49.6335V43.1456H140.852V88.4927H131.888V82.0048C128.527 86.7144 123.565 89.5577 117.556 89.5577C106.031 89.5577 97.4619 79.3275 97.4619 65.8143ZM131.888 65.8143C131.888 57.8118 126.521 51.6757 119.316 51.6757C112.11 51.6757 106.664 57.8118 106.664 65.8143C106.664 73.8167 112.031 79.9529 119.316 79.9529C126.6 79.9529 131.888 73.8167 131.888 65.8143Z" fill="white"/>
<path d="M147.986 43.1356H156.951V50.6984C160.153 45.5393 164.878 42.4321 170.64 42.4321H172.083V52.6623H170.64C161.992 52.6623 156.951 58.0852 156.951 66.4492V88.5023H147.986V43.1552V43.1356Z" fill="white"/>
<path d="M203.272 26.0659H213.055L197.395 88.4829H187.612L203.272 26.0659Z" fill="#175FFF"/>
<path d="M209.915 65.8143C209.915 52.301 218.484 42.0708 230.009 42.0708C236.018 42.0708 240.979 44.9141 244.34 49.6335V43.1456H253.305V88.4927H244.34V82.0048C240.979 86.7144 236.018 89.5577 230.009 89.5577C218.484 89.5577 209.915 79.3275 209.915 65.8143ZM244.34 65.8143C244.34 57.8118 238.974 51.6757 231.768 51.6757C224.563 51.6757 219.117 57.8118 219.117 65.8143C219.117 73.8167 224.484 79.9529 231.768 79.9529C239.053 79.9529 244.34 73.8167 244.34 65.8143Z" fill="#175FFF"/>
<path d="M260.45 43.1358H269.415V48.9202C272.697 44.4744 277.421 42.0708 283.184 42.0708C292.87 42.0708 299.354 49.184 299.354 59.9419V88.4829H290.389V63.2347C290.389 56.2973 286.386 51.6757 280.219 51.6757C273.735 51.6757 269.406 56.3853 269.406 63.4106V88.4829H260.441V43.1358H260.45Z" fill="#175FFF"/>
<path d="M304.384 65.8143C304.384 52.301 313.754 42.0708 326.238 42.0708C338.722 42.0708 348.092 52.301 348.092 65.8143C348.092 79.3275 338.643 89.5577 326.238 89.5577C313.833 89.5577 304.384 79.3275 304.384 65.8143ZM338.81 65.8143C338.81 57.8118 333.443 51.6757 326.238 51.6757C319.033 51.6757 313.587 57.8118 313.587 65.8143C313.587 73.8167 319.033 79.9529 326.238 79.9529C333.443 79.9529 338.81 73.8167 338.81 65.8143Z" fill="#175FFF"/>
<path d="M30.76 138.4C25.08 138.4 20.76 133.88 20.76 128.08C20.76 122.28 25.08 117.76 30.76 117.76C33.44 117.76 35.72 118.8 37.2 120.6V110.4H41.64V138H37.4V135.36C35.96 137.28 33.56 138.4 30.76 138.4ZM31.24 134.2C34.72 134.2 37.24 131.64 37.24 128.08C37.24 124.52 34.72 121.92 31.24 121.92C27.76 121.92 25.2 124.52 25.2 128.08C25.2 131.64 27.76 134.2 31.24 134.2ZM54.5491 138.4C48.8691 138.4 44.5491 133.88 44.5491 128.08C44.5491 122.28 48.8691 117.76 54.5491 117.76C57.3491 117.76 59.7091 118.88 61.1891 120.8V118.16H65.4291V138H61.1891V135.36C59.7491 137.28 57.3491 138.4 54.5491 138.4ZM55.0291 134.2C58.5091 134.2 61.0291 131.64 61.0291 128.08C61.0291 124.52 58.5091 121.92 55.0291 121.92C51.5491 121.92 48.9891 124.52 48.9891 128.08C48.9891 131.64 51.5491 134.2 55.0291 134.2ZM80.9781 138H77.9381C73.4181 138 71.2581 136.04 71.2581 131.92V122.24H67.9781V118.16H70.2581C70.8581 118.16 71.2581 117.76 71.2581 117.04V113.2H75.6981V118.16H80.9781V122.24H75.6981V131.48C75.6981 133.04 76.4581 133.84 78.2581 133.84H80.9781V138ZM92.3616 138.4C86.6816 138.4 82.3616 133.88 82.3616 128.08C82.3616 122.28 86.6816 117.76 92.3616 117.76C95.1616 117.76 97.5216 118.88 99.0016 120.8V118.16H103.242V138H99.0016V135.36C97.5616 137.28 95.1616 138.4 92.3616 138.4ZM92.8416 134.2C96.3216 134.2 98.8416 131.64 98.8416 128.08C98.8416 124.52 96.3216 121.92 92.8416 121.92C89.3616 121.92 86.8016 124.52 86.8016 128.08C86.8016 131.64 89.3616 134.2 92.8416 134.2ZM118.431 138.4C115.631 138.4 113.271 137.28 111.791 135.36V138H107.551V110.4H111.991V120.56C113.471 118.8 115.751 117.76 118.431 117.76C124.111 117.76 128.431 122.28 128.431 128.08C128.431 133.88 124.111 138.4 118.431 138.4ZM117.951 134.2C121.431 134.2 123.991 131.64 123.991 128.08C123.991 124.48 121.431 121.92 117.951 121.92C114.471 121.92 111.951 124.48 111.951 128.08C111.951 131.64 114.471 134.2 117.951 134.2ZM140.369 138.4C134.689 138.4 130.369 133.88 130.369 128.08C130.369 122.28 134.689 117.76 140.369 117.76C143.169 117.76 145.529 118.88 147.009 120.8V118.16H151.249V138H147.009V135.36C145.569 137.28 143.169 138.4 140.369 138.4ZM140.849 134.2C144.329 134.2 146.849 131.64 146.849 128.08C146.849 124.52 144.329 121.92 140.849 121.92C137.369 121.92 134.809 124.52 134.809 128.08C134.809 131.64 137.369 134.2 140.849 134.2ZM162.958 138.4C157.918 138.4 154.598 135.52 154.358 131.76H158.838C159.118 133.68 160.718 134.8 162.958 134.8C165.158 134.8 166.598 133.96 166.598 132.4C166.598 130.84 165.478 130.32 162.798 129.88L160.958 129.56C156.598 128.8 154.838 127.08 154.838 123.76C154.838 120.08 158.198 117.76 162.598 117.76C167.318 117.76 170.678 120.68 170.798 124.28H166.318C166.118 122.76 164.798 121.36 162.558 121.36C160.638 121.36 159.198 122.2 159.198 123.76C159.198 125.32 160.398 125.84 163.038 126.28L164.878 126.6C169.238 127.36 171.038 129.16 171.038 132.4C171.038 136.12 167.678 138.4 162.958 138.4ZM183.149 138.4C177.309 138.4 172.869 133.84 172.869 128.08C172.869 122.28 177.309 117.76 182.949 117.76C188.749 117.76 192.869 122.08 192.869 127.96C192.869 128.44 192.869 128.96 192.789 129.44H177.269C177.789 132.68 180.029 134.52 183.149 134.52C185.629 134.52 187.509 133.28 188.389 131.4H192.949C191.429 135.72 187.549 138.4 183.149 138.4ZM182.909 121.6C180.149 121.6 178.029 123.32 177.389 126.2H188.349C187.989 123.52 185.909 121.6 182.909 121.6ZM207.572 128.2H195.932V124.32H207.572V128.2ZM224.765 138.4C216.805 138.4 210.605 132.24 210.605 124.24C210.605 116.16 216.805 110 224.645 110C231.085 110 236.605 114 238.205 120.52H233.365C231.965 116.64 228.645 114.36 224.645 114.36C219.245 114.36 215.205 118.56 215.205 124.24C215.205 129.88 219.245 134.04 224.725 134.04C228.525 134.04 231.845 132.24 233.365 127.68H224.725V123.6H240.925V127.68H238.205C236.365 134.64 231.045 138.4 224.765 138.4ZM248.006 138H243.566V118.16H247.806V120.92C248.926 119.2 250.806 118.16 253.606 118.16H254.966V122.6H253.086C249.486 122.6 248.006 124.56 248.006 127.64V138ZM266.553 138.4C260.673 138.4 256.073 133.88 256.073 128.08C256.073 122.28 260.673 117.76 266.553 117.76C272.393 117.76 276.993 122.28 276.993 128.08C276.993 133.88 272.393 138.4 266.553 138.4ZM266.553 134.24C270.033 134.24 272.553 131.64 272.553 128.08C272.553 124.52 270.033 121.92 266.553 121.92C263.073 121.92 260.513 124.52 260.513 128.08C260.513 131.64 263.073 134.24 266.553 134.24ZM288.892 138.4C283.532 138.4 279.732 134.92 279.732 129.16V118.16H284.172V129C284.172 132.32 286.052 134.2 288.892 134.2C291.772 134.2 293.612 132.32 293.612 129V118.16H298.052V129.16C298.052 134.92 294.252 138.4 288.892 138.4ZM306.522 145.84H302.082V118.16H306.322V120.8C307.762 118.88 310.162 117.76 312.962 117.76C318.642 117.76 322.962 122.28 322.962 128.08C322.962 133.88 318.642 138.4 312.962 138.4C310.282 138.4 308.002 137.36 306.522 135.56V145.84ZM312.482 134.2C315.962 134.2 318.522 131.64 318.522 128.08C318.522 124.48 315.962 121.92 312.482 121.92C309.002 121.92 306.482 124.48 306.482 128.08C306.482 131.64 309.002 134.2 312.482 134.2Z" fill="url(#paint0_linear_30_17)"/>
<defs>
<linearGradient id="paint0_linear_30_17" x1="20" y1="126.238" x2="337.191" y2="126.238" gradientUnits="userSpaceOnUse">
<stop stop-color="#175FFF"/>
<stop offset="1" stop-color="#8F8F8F"/>
</linearGradient>
</defs>
</svg>
