<svg width="219" height="55" viewBox="0 0 219 55" fill="none" xmlns="http://www.w3.org/2000/svg">
<g clip-path="url(#clip0_36_380)">
<mask id="mask0_36_380" style="mask-type:luminance" maskUnits="userSpaceOnUse" x="0" y="0" width="219" height="55">
<path d="M219 0H0V55H219V0Z" fill="white"/>
</mask>
<g mask="url(#mask0_36_380)">
<path d="M69.5048 22.3632C65.1543 20.6944 61.8893 19.4355 61.8893 16.3258C61.8893 13.7435 63.7021 12.3041 67.1023 12.3041C70.6832 12.3041 74.7658 13.2249 79.1598 15.0667V6.95937C73.9469 5.29054 70.5022 4.6543 66.7415 4.6543C58.7172 4.6543 54.3667 8.45536 54.3667 15.8698C54.3667 23.9769 59.9884 26.3312 66.6981 28.5186C71.6818 30.4705 73.3572 32.0842 73.3572 34.7842C73.3572 37.657 71.7253 38.8058 67.5545 38.8058C63.117 38.8058 58.2202 37.5392 54.7262 35.5307V43.8659C58.9898 45.7076 62.794 46.4556 67.6462 46.4556C76.0311 46.4556 80.8833 42.4891 80.8833 35.0673C80.8833 29.1474 77.7993 25.3537 69.5025 22.3632H69.5048Z" fill="white"/>
<path d="M117.688 14.9487C113.201 14.9487 109.621 18.4518 108.305 24.8351H108.218C107.628 18.4518 104.637 14.9487 100.014 14.9487C95.3906 14.9487 91.9459 18.5144 90.6736 24.8351H90.5865L91.3561 15.7519H84.375V45.6449H91.3561V30.2961C91.3561 25.5265 93.8456 22.4168 96.8861 22.4168C100.102 22.4168 102.05 25.1793 102.05 30.1217V45.6434H109.031V30.2946C109.031 25.525 111.525 22.4153 114.561 22.4153C117.597 22.4153 119.73 25.1778 119.73 30.1202V45.6419H126.711V28.4514C126.711 19.8881 123.267 14.9443 117.688 14.9443V14.9487Z" fill="white"/>
<path d="M142.71 14.9482C139.402 14.9482 135.729 15.8065 131.695 17.4754V25.0626C135.14 23.0555 138.354 22.078 141.258 22.078C145.292 22.078 147.422 24.1477 147.469 28.0531H139.534C133.463 28.0531 130.02 31.3908 130.02 37.3642C130.02 43.3377 133.099 46.4535 138.174 46.4535C143.25 46.4535 146.695 43.0607 148.148 36.6237H148.24L147.471 45.6443H154.447V28.1708C154.447 19.4347 150.368 14.9482 142.71 14.9482ZM147.469 32.7124C147.469 36.506 144.343 39.5517 140.669 39.5517C138.174 39.5517 136.815 38.2299 136.815 35.7029C136.815 33.1758 138.224 31.6737 140.898 31.6737H147.469V32.7124Z" fill="white"/>
<path d="M172.033 38.5771C168.725 38.5771 167.454 36.8531 167.454 32.3666V23.2835H177.203V15.7514H167.454V9.43066H164.42L164.375 9.8881C163.47 13.9097 160.795 16.6723 157.164 17.2474L156.849 17.3026V23.2835H160.479V33.9178C160.479 42.5987 163.557 46.4549 170.453 46.4549C172.854 46.4549 175.207 45.9915 177.615 45.0707V37.4283C175.528 38.2314 173.625 38.5771 172.036 38.5771H172.033Z" fill="white"/>
<path d="M181.697 15.7525V45.6454H188.677V15.7525H181.697ZM185.185 4.08105C182.695 4.08105 180.926 5.86761 180.926 8.45578C180.926 11.044 182.695 12.8797 185.185 12.8797C187.673 12.8797 189.491 11.1006 189.491 8.45578C189.491 5.81098 187.679 4.08105 185.185 4.08105Z" fill="white"/>
<path d="M216.555 37.254C215.557 33.5155 213.832 31.2178 210.616 30.6978L208.03 30.2405V30.1227C214.061 28.6894 216.737 23.1643 217.009 15.7499H209.798C209.481 22.4163 207.439 27.4228 203.319 27.4228H200.463V3.91309L193.482 5.40163V45.6443H200.463V33.9163H203.454C206.396 33.9163 208.531 35.2379 209.436 38.8587L211.112 45.6428H219L216.555 37.2526V37.254Z" fill="white"/>
<path d="M5.08496 34.5382V21.6495C5.08496 16.0247 7.96925 11.0539 12.2035 9.38208L34.728 0.48958C40.1511 -1.6516 45.654 3.49944 45.6401 10.7022C45.6306 15.363 43.2374 19.4755 39.7281 20.8612L5.08496 34.5382Z" fill="#FFB522"/>
<path d="M0 44.3244C0 39.6547 2.39554 35.5273 5.91072 34.1386L40.5844 20.4482L40.5585 33.3816C40.5468 38.9947 37.6648 43.9475 33.4389 45.6149L10.9109 54.5088C5.49717 56.6486 0 51.5168 0 44.3244Z" fill="#FF621D"/>
</g>
</g>
<defs>
<clipPath id="clip0_36_380">
<rect width="219" height="55" fill="white"/>
</clipPath>
</defs>
</svg>
